<?xml version="1.0" standalone="no"?>
<!DOCTYPE svg PUBLIC "-//W3C//DTD SVG 20010904//EN"
 "http://www.w3.org/TR/2001/REC-SVG-20010904/DTD/svg10.dtd">
<svg version="1.0" xmlns="http://www.w3.org/2000/svg"
 width="2048.000000pt" height="2048.000000pt" viewBox="0 0 2048.000000 2048.000000"
 preserveAspectRatio="xMidYMid meet">
<metadata>
Created by potrace 1.14, written by Peter Selinger 2001-2017
</metadata>
<g transform="translate(0.000000,2048.000000) scale(0.100000,-0.100000)"
fill="#000000" stroke="none">
<path d="M1640 10510 l0 -7560 2380 0 2380 0 0 4350 0 4351 107 -3 107 -3
1757 -2285 1757 -2285 112 0 112 0 1757 2285 1757 2285 107 3 107 3 0 -4351 0
-4350 2380 0 2380 0 0 7560 0 7560 -2347 0 -2348 0 -1900 -2395 -1900 -2395
-105 0 -105 0 -1899 2395 -1899 2395 -2349 0 -2348 0 0 -7560z"/>
</g>
</svg>
